<svg xmlns="http://www.w3.org/2000/svg" width="17" height="17" viewBox="0 0 17 17" fill="none">
  <path d="M10.6989 7.99139C11.0589 6.91139 11.5489 6.43139 12.6289 6.06139C12.9489 5.96139 12.9489 5.51139 12.6289 5.40139C11.5489 5.04139 11.0689 4.55139 10.6989 3.47139C10.5889 3.16139 10.1489 3.16139 10.0389 3.47139C9.67888 4.55139 9.18887 5.03139 8.10887 5.40139C7.78887 5.50139 7.78887 5.95139 8.10887 6.06139C9.18887 6.42139 9.66888 6.91139 10.0389 7.99139C10.1489 8.30139 10.5889 8.30139 10.6989 7.99139Z" fill="#1D2D3E"/>
  <path fill-rule="evenodd" clip-rule="evenodd" d="M8.21887 15.9014C8.36887 16.1114 8.60888 16.2314 8.86888 16.2314C9.12888 16.2314 9.36888 16.1114 9.51888 15.9014L16.7189 5.90145C16.9089 5.63145 16.9189 5.26145 16.7289 4.98145L13.7289 0.581445C13.5789 0.361445 13.3289 0.231445 13.0689 0.231445H5.06888C4.82888 0.231445 4.58888 0.341445 4.43888 0.541445L1.03888 4.94145C0.818877 5.22145 0.808878 5.61145 1.01888 5.90145L8.21887 15.9014ZM8.86888 14.0614L2.66888 5.45145L5.45888 1.83145H12.6389L15.0889 5.42145L8.86888 14.0614Z" fill="#1D2D3E"/>
</svg>
